<svg xmlns="http://www.w3.org/2000/svg" viewBox="0 0 1440 320">
    <path fill="#273036" fill-opacity="1" d="M0,192L6.2,208C12.3,224,25,256,37,240C49.2,224,62,160,74,149.3C86.2,139,98,181,111,170.7C123.1,160,135,96,148,74.7C160,53,172,75,185,90.7C196.9,107,209,117,222,133.3C233.8,149,246,171,258,165.3C270.8,160,283,128,295,117.3C307.7,107,320,117,332,101.3C344.6,85,357,43,369,69.3C381.5,96,394,192,406,213.3C418.5,235,431,181,443,160C455.4,139,468,149,480,133.3C492.3,117,505,75,517,96C529.2,117,542,203,554,208C566.2,213,578,139,591,122.7C603.1,107,615,149,628,149.3C640,149,652,107,665,80C676.9,53,689,43,702,58.7C713.8,75,726,117,738,144C750.8,171,763,181,775,160C787.7,139,800,85,812,64C824.6,43,837,53,849,74.7C861.5,96,874,128,886,154.7C898.5,181,911,203,923,213.3C935.4,224,948,224,960,202.7C972.3,181,985,139,997,128C1009.2,117,1022,139,1034,149.3C1046.2,160,1058,160,1071,149.3C1083.1,139,1095,117,1108,101.3C1120,85,1132,75,1145,85.3C1156.9,96,1169,128,1182,138.7C1193.8,149,1206,139,1218,160C1230.8,181,1243,235,1255,250.7C1267.7,267,1280,245,1292,213.3C1304.6,181,1317,139,1329,106.7C1341.5,75,1354,53,1366,69.3C1378.5,85,1391,139,1403,160C1415.4,181,1428,171,1434,165.3L1440,160L1440,320L1433.8,320C1427.7,320,1415,320,1403,320C1390.8,320,1378,320,1366,320C1353.8,320,1342,320,1329,320C1316.9,320,1305,320,1292,320C1280,320,1268,320,1255,320C1243.1,320,1231,320,1218,320C1206.2,320,1194,320,1182,320C1169.2,320,1157,320,1145,320C1132.3,320,1120,320,1108,320C1095.4,320,1083,320,1071,320C1058.5,320,1046,320,1034,320C1021.5,320,1009,320,997,320C984.6,320,972,320,960,320C947.7,320,935,320,923,320C910.8,320,898,320,886,320C873.8,320,862,320,849,320C836.9,320,825,320,812,320C800,320,788,320,775,320C763.1,320,751,320,738,320C726.2,320,714,320,702,320C689.2,320,677,320,665,320C652.3,320,640,320,628,320C615.4,320,603,320,591,320C578.5,320,566,320,554,320C541.5,320,529,320,517,320C504.6,320,492,320,480,320C467.7,320,455,320,443,320C430.8,320,418,320,406,320C393.8,320,382,320,369,320C356.9,320,345,320,332,320C320,320,308,320,295,320C283.1,320,271,320,258,320C246.2,320,234,320,222,320C209.2,320,197,320,185,320C172.3,320,160,320,148,320C135.4,320,123,320,111,320C98.5,320,86,320,74,320C61.5,320,49,320,37,320C24.6,320,12,320,6,320L0,320Z"></path>
</svg>