<svg xmlns="http://www.w3.org/2000/svg" viewBox="0 0 1440 320">
    <path fill="#273036" fill-opacity="1" d="M0,256L6.2,234.7C12.3,213,25,171,37,170.7C49.2,171,62,213,74,208C86.2,203,98,149,111,133.3C123.1,117,135,139,148,138.7C160,139,172,117,185,112C196.9,107,209,117,222,128C233.8,139,246,149,258,170.7C270.8,192,283,224,295,240C307.7,256,320,256,332,250.7C344.6,245,357,235,369,218.7C381.5,203,394,181,406,186.7C418.5,192,431,224,443,229.3C455.4,235,468,213,480,192C492.3,171,505,149,517,160C529.2,171,542,213,554,202.7C566.2,192,578,128,591,96C603.1,64,615,64,628,69.3C640,75,652,85,665,80C676.9,75,689,53,702,69.3C713.8,85,726,139,738,138.7C750.8,139,763,85,775,74.7C787.7,64,800,96,812,112C824.6,128,837,128,849,112C861.5,96,874,64,886,85.3C898.5,107,911,181,923,202.7C935.4,224,948,192,960,186.7C972.3,181,985,203,997,208C1009.2,213,1022,203,1034,218.7C1046.2,235,1058,277,1071,293.3C1083.1,309,1095,299,1108,282.7C1120,267,1132,245,1145,218.7C1156.9,192,1169,160,1182,133.3C1193.8,107,1206,85,1218,112C1230.8,139,1243,213,1255,224C1267.7,235,1280,181,1292,170.7C1304.6,160,1317,192,1329,213.3C1341.5,235,1354,245,1366,240C1378.5,235,1391,213,1403,181.3C1415.4,149,1428,107,1434,85.3L1440,64L1440,320L1433.8,320C1427.7,320,1415,320,1403,320C1390.8,320,1378,320,1366,320C1353.8,320,1342,320,1329,320C1316.9,320,1305,320,1292,320C1280,320,1268,320,1255,320C1243.1,320,1231,320,1218,320C1206.2,320,1194,320,1182,320C1169.2,320,1157,320,1145,320C1132.3,320,1120,320,1108,320C1095.4,320,1083,320,1071,320C1058.5,320,1046,320,1034,320C1021.5,320,1009,320,997,320C984.6,320,972,320,960,320C947.7,320,935,320,923,320C910.8,320,898,320,886,320C873.8,320,862,320,849,320C836.9,320,825,320,812,320C800,320,788,320,775,320C763.1,320,751,320,738,320C726.2,320,714,320,702,320C689.2,320,677,320,665,320C652.3,320,640,320,628,320C615.4,320,603,320,591,320C578.5,320,566,320,554,320C541.5,320,529,320,517,320C504.6,320,492,320,480,320C467.7,320,455,320,443,320C430.8,320,418,320,406,320C393.8,320,382,320,369,320C356.9,320,345,320,332,320C320,320,308,320,295,320C283.1,320,271,320,258,320C246.2,320,234,320,222,320C209.2,320,197,320,185,320C172.3,320,160,320,148,320C135.4,320,123,320,111,320C98.5,320,86,320,74,320C61.5,320,49,320,37,320C24.6,320,12,320,6,320L0,320Z"></path>
</svg>