<svg xmlns="http://www.w3.org/2000/svg" viewBox="0 0 1440 320">
    <path fill="#273036" fill-opacity="1" d="M0,256L6.2,261.3C12.3,267,25,277,37,245.3C49.2,213,62,139,74,122.7C86.2,107,98,149,111,144C123.1,139,135,85,148,101.3C160,117,172,203,185,224C196.9,245,209,203,222,202.7C233.8,203,246,245,258,256C270.8,267,283,245,295,224C307.7,203,320,181,332,170.7C344.6,160,357,160,369,144C381.5,128,394,96,406,80C418.5,64,431,64,443,101.3C455.4,139,468,213,480,208C492.3,203,505,117,517,85.3C529.2,53,542,75,554,80C566.2,85,578,75,591,69.3C603.1,64,615,64,628,101.3C640,139,652,213,665,229.3C676.9,245,689,203,702,165.3C713.8,128,726,96,738,106.7C750.8,117,763,171,775,197.3C787.7,224,800,224,812,224C824.6,224,837,224,849,234.7C861.5,245,874,267,886,229.3C898.5,192,911,96,923,74.7C935.4,53,948,107,960,144C972.3,181,985,203,997,202.7C1009.2,203,1022,181,1034,176C1046.2,171,1058,181,1071,192C1083.1,203,1095,213,1108,192C1120,171,1132,117,1145,122.7C1156.9,128,1169,192,1182,208C1193.8,224,1206,192,1218,170.7C1230.8,149,1243,139,1255,112C1267.7,85,1280,43,1292,37.3C1304.6,32,1317,64,1329,112C1341.5,160,1354,224,1366,234.7C1378.5,245,1391,203,1403,181.3C1415.4,160,1428,160,1434,160L1440,160L1440,320L1433.8,320C1427.7,320,1415,320,1403,320C1390.8,320,1378,320,1366,320C1353.8,320,1342,320,1329,320C1316.9,320,1305,320,1292,320C1280,320,1268,320,1255,320C1243.1,320,1231,320,1218,320C1206.2,320,1194,320,1182,320C1169.2,320,1157,320,1145,320C1132.3,320,1120,320,1108,320C1095.4,320,1083,320,1071,320C1058.5,320,1046,320,1034,320C1021.5,320,1009,320,997,320C984.6,320,972,320,960,320C947.7,320,935,320,923,320C910.8,320,898,320,886,320C873.8,320,862,320,849,320C836.9,320,825,320,812,320C800,320,788,320,775,320C763.1,320,751,320,738,320C726.2,320,714,320,702,320C689.2,320,677,320,665,320C652.3,320,640,320,628,320C615.4,320,603,320,591,320C578.5,320,566,320,554,320C541.5,320,529,320,517,320C504.6,320,492,320,480,320C467.7,320,455,320,443,320C430.8,320,418,320,406,320C393.8,320,382,320,369,320C356.9,320,345,320,332,320C320,320,308,320,295,320C283.1,320,271,320,258,320C246.2,320,234,320,222,320C209.2,320,197,320,185,320C172.3,320,160,320,148,320C135.4,320,123,320,111,320C98.5,320,86,320,74,320C61.5,320,49,320,37,320C24.6,320,12,320,6,320L0,320Z"></path>
</svg>