<svg xmlns="http://www.w3.org/2000/svg" viewBox="0 0 1440 320">
    <path fill="#273036" fill-opacity="1" d="M0,32L6.2,37.3C12.3,43,25,53,37,96C49.2,139,62,213,74,218.7C86.2,224,98,160,111,133.3C123.1,107,135,117,148,117.3C160,117,172,107,185,85.3C196.9,64,209,32,222,32C233.8,32,246,64,258,80C270.8,96,283,96,295,128C307.7,160,320,224,332,245.3C344.6,267,357,245,369,240C381.5,235,394,245,406,229.3C418.5,213,431,171,443,165.3C455.4,160,468,192,480,197.3C492.3,203,505,181,517,144C529.2,107,542,53,554,48C566.2,43,578,85,591,90.7C603.1,96,615,64,628,80C640,96,652,160,665,181.3C676.9,203,689,181,702,170.7C713.8,160,726,160,738,144C750.8,128,763,96,775,112C787.7,128,800,192,812,229.3C824.6,267,837,277,849,256C861.5,235,874,181,886,154.7C898.5,128,911,128,923,149.3C935.4,171,948,213,960,240C972.3,267,985,277,997,256C1009.2,235,1022,181,1034,170.7C1046.2,160,1058,192,1071,192C1083.1,192,1095,160,1108,165.3C1120,171,1132,213,1145,197.3C1156.9,181,1169,107,1182,96C1193.8,85,1206,139,1218,160C1230.8,181,1243,171,1255,176C1267.7,181,1280,203,1292,208C1304.6,213,1317,203,1329,170.7C1341.5,139,1354,85,1366,96C1378.5,107,1391,181,1403,181.3C1415.4,181,1428,107,1434,69.3L1440,32L1440,320L1433.8,320C1427.7,320,1415,320,1403,320C1390.8,320,1378,320,1366,320C1353.8,320,1342,320,1329,320C1316.9,320,1305,320,1292,320C1280,320,1268,320,1255,320C1243.1,320,1231,320,1218,320C1206.2,320,1194,320,1182,320C1169.2,320,1157,320,1145,320C1132.3,320,1120,320,1108,320C1095.4,320,1083,320,1071,320C1058.5,320,1046,320,1034,320C1021.5,320,1009,320,997,320C984.6,320,972,320,960,320C947.7,320,935,320,923,320C910.8,320,898,320,886,320C873.8,320,862,320,849,320C836.9,320,825,320,812,320C800,320,788,320,775,320C763.1,320,751,320,738,320C726.2,320,714,320,702,320C689.2,320,677,320,665,320C652.3,320,640,320,628,320C615.4,320,603,320,591,320C578.5,320,566,320,554,320C541.5,320,529,320,517,320C504.6,320,492,320,480,320C467.7,320,455,320,443,320C430.8,320,418,320,406,320C393.8,320,382,320,369,320C356.9,320,345,320,332,320C320,320,308,320,295,320C283.1,320,271,320,258,320C246.2,320,234,320,222,320C209.2,320,197,320,185,320C172.3,320,160,320,148,320C135.4,320,123,320,111,320C98.5,320,86,320,74,320C61.5,320,49,320,37,320C24.6,320,12,320,6,320L0,320Z"></path>
</svg>