<svg xmlns="http://www.w3.org/2000/svg" viewBox="0 0 1440 320">
    <path fill="#273036" fill-opacity="1" d="M0,192L6.2,181.3C12.3,171,25,149,37,128C49.2,107,62,85,74,101.3C86.2,117,98,171,111,197.3C123.1,224,135,224,148,229.3C160,235,172,245,185,218.7C196.9,192,209,128,222,112C233.8,96,246,128,258,154.7C270.8,181,283,203,295,197.3C307.7,192,320,160,332,138.7C344.6,117,357,107,369,106.7C381.5,107,394,117,406,112C418.5,107,431,85,443,90.7C455.4,96,468,128,480,154.7C492.3,181,505,203,517,208C529.2,213,542,203,554,165.3C566.2,128,578,64,591,48C603.1,32,615,64,628,80C640,96,652,96,665,112C676.9,128,689,160,702,186.7C713.8,213,726,235,738,202.7C750.8,171,763,85,775,85.3C787.7,85,800,171,812,197.3C824.6,224,837,192,849,202.7C861.5,213,874,267,886,277.3C898.5,288,911,256,923,250.7C935.4,245,948,267,960,250.7C972.3,235,985,181,997,170.7C1009.2,160,1022,192,1034,197.3C1046.2,203,1058,181,1071,176C1083.1,171,1095,181,1108,202.7C1120,224,1132,256,1145,234.7C1156.9,213,1169,139,1182,133.3C1193.8,128,1206,192,1218,186.7C1230.8,181,1243,107,1255,101.3C1267.7,96,1280,160,1292,154.7C1304.6,149,1317,75,1329,58.7C1341.5,43,1354,85,1366,90.7C1378.5,96,1391,64,1403,48C1415.4,32,1428,32,1434,32L1440,32L1440,320L1433.8,320C1427.7,320,1415,320,1403,320C1390.8,320,1378,320,1366,320C1353.8,320,1342,320,1329,320C1316.9,320,1305,320,1292,320C1280,320,1268,320,1255,320C1243.1,320,1231,320,1218,320C1206.2,320,1194,320,1182,320C1169.2,320,1157,320,1145,320C1132.3,320,1120,320,1108,320C1095.4,320,1083,320,1071,320C1058.5,320,1046,320,1034,320C1021.5,320,1009,320,997,320C984.6,320,972,320,960,320C947.7,320,935,320,923,320C910.8,320,898,320,886,320C873.8,320,862,320,849,320C836.9,320,825,320,812,320C800,320,788,320,775,320C763.1,320,751,320,738,320C726.2,320,714,320,702,320C689.2,320,677,320,665,320C652.3,320,640,320,628,320C615.4,320,603,320,591,320C578.5,320,566,320,554,320C541.5,320,529,320,517,320C504.6,320,492,320,480,320C467.7,320,455,320,443,320C430.8,320,418,320,406,320C393.8,320,382,320,369,320C356.9,320,345,320,332,320C320,320,308,320,295,320C283.1,320,271,320,258,320C246.2,320,234,320,222,320C209.2,320,197,320,185,320C172.3,320,160,320,148,320C135.4,320,123,320,111,320C98.5,320,86,320,74,320C61.5,320,49,320,37,320C24.6,320,12,320,6,320L0,320Z"></path>
</svg>